<?xml version="1.0" encoding="utf-8"?>
<!-- Generator: Adobe Illustrator 16.0.0, SVG Export Plug-In . SVG Version: 6.00 Build 0)  -->
<!DOCTYPE svg PUBLIC "-//W3C//DTD SVG 1.1//EN" "http://www.w3.org/Graphics/SVG/1.1/DTD/svg11.dtd">
<svg version="1.1" id="Layer_1" xmlns="http://www.w3.org/2000/svg" xmlns:xlink="http://www.w3.org/1999/xlink" x="0px" y="0px"
	 width="35px" height="30.625px" viewBox="0 0 35 30.625" enable-background="new 0 0 35 30.625" xml:space="preserve">
<g>
	<path fill="#FFFFFF" d="M0,4.375V1.25C0,0.56,0.56,0,1.25,0h32.5C34.44,0,35,0.56,35,1.25v3.125c0,0.69-0.56,1.25-1.25,1.25H1.25
		C0.56,5.625,0,5.065,0,4.375z M0,16.875V13.75c0-0.69,0.56-1.25,1.25-1.25h32.5c0.69,0,1.25,0.56,1.25,1.25v3.125
		c0,0.69-0.56,1.25-1.25,1.25H1.25C0.56,18.125,0,17.565,0,16.875z M0,29.375V26.25C0,25.56,0.56,25,1.25,25h32.5
		c0.69,0,1.25,0.56,1.25,1.25v3.125c0,0.69-0.56,1.25-1.25,1.25H1.25C0.56,30.625,0,30.065,0,29.375z"/>
</g>
</svg>
