<?xml version="1.0" encoding="utf-8"?>
<!-- Generator: Adobe Illustrator 16.0.0, SVG Export Plug-In . SVG Version: 6.00 Build 0)  -->
<!DOCTYPE svg PUBLIC "-//W3C//DTD SVG 1.1//EN" "http://www.w3.org/Graphics/SVG/1.1/DTD/svg11.dtd">
<svg version="1.1" id="Layer_1" xmlns="http://www.w3.org/2000/svg" xmlns:xlink="http://www.w3.org/1999/xlink" x="0px" y="0px"
	 width="100px" height="75px" viewBox="0 0 100 75" enable-background="new 0 0 100 75" xml:space="preserve">
<g>
	<path fill="#FFFFFF" d="M54.964,0L27.253,46.603h8.971c4.241,0,7.208-0.28,8.901-0.838c2.758-0.874,5.134-2.481,7.128-4.824
		c1.993-2.342,3.373-5.479,4.138-9.411h1.355l-1.913,17.84H12.65L40.396,2.694h-6.989c-2.712,0-4.497,0.085-5.355,0.254
		c-1.622,0.316-3.146,0.94-4.571,1.875c-1.426,0.934-2.608,2.178-3.547,3.731c-0.938,1.553-1.675,3.52-2.208,5.898H16.44L17.726,0
		H54.964z"/>
	<path fill="#FFFFFF" d="M56.615,0l-1.061,3.147C56.511,2.943,57.591,2.84,58.8,2.84h3.408v38.083c0,2.476-0.127,4.005-0.382,4.587
		c-0.348,0.825-0.823,1.408-1.426,1.748c-0.834,0.51-1.9,0.764-1.9,0.764v1.347h21.719v-1.347h-1.564
		c-1.345,0-2.405-0.237-3.182-0.71c-0.776-0.474-1.298-1.025-1.564-1.656s-0.399-2.209-0.399-4.733V2.84h3.511
		c2.202,0,3.744,0.218,4.625,0.655c1.576,0.802,2.815,1.875,3.72,3.223s1.728,3.562,2.469,6.645h1.252V0H56.615z"/>
	<g>
		<path fill="#FFFFFF" d="M2.922,69.454h6.392V71.1H0.549v-1.32l6.333-7.907h-6.14v-1.646H9.24v1.32L2.922,69.454z"/>
		<path fill="#FFFFFF" d="M13.825,68.646L12.832,71.1h-1.825l4.583-10.874h1.795L21.923,71.1h-1.869l-0.994-2.454H13.825z
			 M16.436,62.184l-1.958,4.831h3.916L16.436,62.184z"/>
		<path fill="#FFFFFF" d="M26.509,71.1l-4.138-10.874h1.884l3.204,8.839l3.233-8.839h1.825L28.318,71.1H26.509z"/>
		<path fill="#FFFFFF" d="M35.039,71.1V60.227h1.75V71.1H35.039z"/>
		<path fill="#FFFFFF" d="M42.1,68.646L41.106,71.1h-1.824l4.583-10.874h1.795L50.198,71.1h-1.869l-0.994-2.454H42.1z M44.71,62.184
			l-1.958,4.831h3.916L44.71,62.184z"/>
		<path fill="#FFFFFF" d="M61.429,61.873V71.1h-1.75v-9.227h-3.278v-1.646h8.321v1.646H61.429z"/>
		<path fill="#FFFFFF" d="M69.084,61.873v2.936h5.073v1.646h-5.073v2.998h5.843V71.1h-7.594V60.227h7.416v1.646H69.084z"/>
		<path fill="#FFFFFF" d="M86.72,61.858l-1.023,1.335c-0.756-0.854-1.839-1.382-2.892-1.382c-2.076,0-3.708,1.678-3.708,3.821
			s1.632,3.837,3.708,3.837c1.038,0,2.105-0.497,2.892-1.29l1.038,1.212c-1.053,1.087-2.551,1.786-4.019,1.786
			c-3.041,0-5.399-2.408-5.399-5.53c0-3.091,2.389-5.468,5.458-5.468C84.244,60.18,85.711,60.817,86.72,61.858z"/>
		<path fill="#FFFFFF" d="M96.882,71.1v-4.505h-5.503V71.1h-1.75V60.227h1.75v4.722h5.503v-4.722h1.75V71.1H96.882z"/>
	</g>
</g>
</svg>
